<svg xmlns="http://www.w3.org/2000/svg" viewBox="0 0 512 512"><rect width="512" height="512" fill="#1a1a1a" rx="96"/><defs><linearGradient id="g" x1="0%" x2="0%" y1="0%" y2="100%"><stop offset="0%" style="stop-color:#f5c542;stop-opacity:1"/><stop offset="100%" style="stop-color:#d4961c;stop-opacity:1"/></linearGradient></defs><rect width="32" height="368" x="240" y="80" fill="url(#g)" rx="16"/><path fill="#F5C542" d="M240 144 C192 112, 112 112, 80 144 C112 128, 176 128, 224 160" opacity=".9"/><path fill="#D4961C" d="M240 176 C208 152, 144 152, 112 176 C144 160, 192 160, 224 192" opacity=".8"/><path fill="#F5C542" d="M272 144 C320 112, 400 112, 432 144 C400 128, 336 128, 288 160" opacity=".9"/><path fill="#D4961C" d="M272 176 C304 152, 368 152, 400 176 C368 160, 320 160, 288 192" opacity=".8"/><path fill="none" stroke="#F5C542" stroke-linecap="round" stroke-width="20" d="M256 384 C176 352, 160 304, 208 272 C160 288, 144 336, 192 368 C144 320, 176 240, 240 224 C192 256, 176 304, 224 336"/><path fill="none" stroke="#D4961C" stroke-linecap="round" stroke-width="20" d="M256 384 C336 352, 352 304, 304 272 C352 288, 368 336, 320 368 C368 320, 336 240, 272 224 C320 256, 336 304, 288 336"/><circle cx="256" cy="80" r="32" fill="#F5C542"/><circle cx="256" cy="80" r="16" fill="#FFF8E1" opacity=".7"/></svg>